<svg width="1236" height="856" viewBox="0 0 1236 856" fill="none" xmlns="http://www.w3.org/2000/svg">
<path d="M0 453.777C17.8678 445.737 35.2932 437.887 54.3509 429.304C36.3749 420.652 18.5169 414.681 0.885033 406.555C2.64527 405.219 3.79581 403.935 5.29053 403.272C20.2083 396.697 35.244 390.338 50.0929 383.659C54.046 381.884 57.242 382.1 61.1361 383.694C94.0593 397.162 127.042 410.51 160.073 423.78C164.311 425.487 166.691 427.382 166.681 432.01C166.494 517.56 166.504 603.111 166.465 688.662C166.465 689.222 166.229 689.773 165.954 690.954C164.764 691.617 163.23 692.643 161.538 693.392C129.756 707.55 98.0518 721.846 66.0923 735.685C59.366 738.598 56.5733 741.803 56.7306 748.706C57.301 773.669 56.9568 798.65 56.9568 823.631C56.9568 826.406 56.9568 829.181 56.9568 833.438C37.0632 825.682 18.6447 818.496 0 811.223C0 692.031 0 573.27 0 453.777ZM107.856 713.798C107.856 625.274 107.856 538.155 107.856 450.657C91.1387 443.867 74.6673 437.171 57.3108 430.123C57.3108 518.603 57.3108 605.576 57.3108 693.082C73.8216 699.855 90.2832 706.602 107.856 713.798Z" fill="black"/>
<path d="M1235.05 356.214C944.251 485.186 655.307 613.322 365.016 742.062C363.59 733.988 364.446 726.396 364.298 718.891C364.151 711.428 364.269 703.966 364.269 695.943C367.937 694.16 371.546 692.264 375.283 690.592C541.197 616.907 707.111 543.214 873.064 469.589C972.405 425.513 1071.83 381.6 1171.08 337.394C1177.89 334.361 1183.36 334.085 1190.11 337.161C1202.01 342.582 1214.36 347.243 1226.51 352.267C1228.8 353.207 1230.98 354.327 1235.05 356.214Z" fill="black"/>
<path d="M1127.07 311.362C1107.03 303.52 1088.6 296.308 1069.98 289.018C1069.98 200.494 1069.98 112.419 1069.98 24.0073C1088.56 16.1485 1107.01 8.34997 1126.76 0C1126.76 41.5603 1126.76 81.6471 1126.76 122.82C1130.15 121.76 1132.54 121.234 1134.7 120.303C1147.94 114.633 1161.14 108.877 1174.33 103.138C1177.57 101.734 1180.45 100.519 1184.44 102.121C1201.4 108.894 1218.56 115.323 1236 122.001C1236 184.122 1236 245.992 1236 309.294C1216.38 301.624 1197.71 294.334 1178.61 286.872C1178.61 239.9 1178.61 193.445 1178.61 146.448C1161.73 139.632 1145.24 132.971 1127.06 125.637C1127.07 188.129 1127.07 249.026 1127.07 311.362Z" fill="black"/>
<path d="M599.785 310.052C608.056 306.485 616.286 303.021 624.429 299.41C651.009 287.622 677.619 275.894 704.062 263.882C708.9 261.684 712.765 261.486 717.711 263.632C733.838 270.62 750.202 277.169 766.565 283.925C766.565 346.02 766.565 407.71 766.565 470.33C763.753 469.546 761.363 469.081 759.16 468.236C745.364 462.937 731.498 457.767 717.898 452.105C712.411 449.822 707.956 449.554 702.361 452.183C689.095 458.413 675.328 463.833 661.905 469.813C657.726 471.675 654.136 471.744 649.839 470.02C634.656 463.945 619.295 458.189 604.024 452.269C602.568 451.7 601.26 450.847 599.785 450.071C599.785 403.418 599.785 356.938 599.785 310.052ZM708.644 308.846C696.392 301.943 664.088 289.052 657.558 288.423C657.558 334.249 657.558 380.083 657.558 426.073C674.463 432.915 690.954 439.593 708.644 446.754C708.644 399.73 708.644 354.258 708.644 308.846Z" fill="black"/>
<path d="M656.068 141.139C650.099 140.062 644.13 138.994 636.774 137.675C636.538 141.812 636.214 144.828 636.204 147.844C636.164 168.783 636.076 189.723 636.263 210.654C636.302 215.117 635.151 217.961 630.117 220.141C598.757 233.747 567.574 247.673 536.323 261.486C535.467 261.865 534.494 262.055 532.311 262.727C532.124 259.357 531.819 256.367 531.819 253.377C531.789 218.668 531.839 183.966 531.74 149.257C531.73 145.913 530.845 142.578 530.373 139.235L530.147 139.45C535.241 138.684 540.315 137.546 545.448 137.227C554.505 136.667 563.601 136.615 573.199 136.34C573.199 116.839 573.199 98.321 573.199 79.2772C569.512 78.4414 565.785 77.64 562.077 76.761C551.083 74.1587 544.475 67.9802 543.531 57.9757C542.99 52.2971 543.265 46.5064 543.777 40.8105C544.927 28.1864 543.964 16.1225 533.491 6.0577C541.466 4.26534 541.584 4.1447 546.609 7.78973C554.2 13.2961 562.716 16.1569 573.022 15.9674C573.524 12.2275 573.966 8.88411 574.468 5.1012C580.781 5.1012 586.858 5.1012 593.407 5.1012C593.889 8.66006 594.342 11.969 594.853 15.7692C604.746 16.3207 613.094 13.6321 619.939 7.94484C623.99 4.57555 628.081 4.03268 634.089 5.34248C621.787 16.8463 621.315 30.4786 622.004 44.4297C622.23 48.9967 622.014 53.6069 621.63 58.1739C620.794 68.2646 614.54 74.4947 603.448 77.0799C600.635 77.7348 597.833 78.4586 594.646 79.2428C594.646 97.9505 594.646 116.512 594.646 136.21C608.148 136.71 621.394 137.201 635.427 137.718C638.731 127.154 641.907 117.02 645.211 106.447C642.556 105.301 640.314 104.336 636.863 102.845C639.144 82.9395 641.475 62.5773 643.923 41.1982C665.243 41.1379 684.172 45.9032 703.456 54.9598C693.652 73.9777 684.163 92.4011 674.535 111.1C671.507 111.229 668.704 111.359 665.557 111.497C662.283 121.579 659.077 131.462 655.861 141.346L656.068 141.139ZM668.37 84.3872C667.849 84.189 667.327 83.9908 666.806 83.784C669.019 75.1669 671.31 66.567 673.365 57.9154C673.729 56.3643 673.08 54.6237 672.893 52.9692C672.136 52.883 671.379 52.7969 670.622 52.7107C664.928 61.6466 664.19 72.4266 657.916 81.3281C657.474 75.9079 658.389 70.617 658.182 65.3606C657.975 60.0438 660.65 54.2359 656.009 48.9364C652.577 53.986 648.289 86.1623 649.479 96.8561C655.379 98.1832 661.525 99.5619 668.124 101.053C675.509 86.4467 682.52 72.5904 689.463 58.7082C689.62 58.3894 688.942 57.7517 688.263 56.597C681.498 59.027 680.977 65.352 677.722 69.7295C674.25 74.3999 671.467 79.484 668.37 84.3872ZM573.681 41.6463C566.591 41.6463 560.917 41.6463 554.8 41.6463C554.8 44.7571 554.8 47.3767 554.8 50.229C561.173 50.229 566.866 50.229 573.199 50.229C573.366 47.3939 573.504 44.9725 573.681 41.6463ZM594.735 50.0739C601.373 50.0739 606.998 50.0739 613.222 50.0739C613.036 47.0234 612.878 44.602 612.701 41.698C606.496 41.698 600.881 41.698 594.735 41.698C594.735 44.6537 594.735 47.0579 594.735 50.0739ZM613.409 22.344C606.791 23.447 600.93 24.4207 594.784 25.4376C594.784 27.6349 594.784 29.4531 594.784 31.5902C600.94 31.5902 606.575 31.5902 612.77 31.5902C612.996 28.3674 613.183 25.6616 613.409 22.344ZM573.317 25.3686C566.64 24.3604 560.75 23.4729 554.053 22.4647C554.23 25.8857 554.377 28.5656 554.535 31.5816C561.104 31.5816 567.053 31.5816 573.317 31.5816C573.317 29.4187 573.317 27.8073 573.317 25.3686ZM555.794 60.0611C558.901 67.3856 562.766 69.2555 573.661 68.7213C573.514 65.8087 573.366 62.8875 573.229 60.0611C566.679 60.0611 561.33 60.0611 555.794 60.0611ZM594.656 69.4882C607.912 67.8854 609.761 66.7393 610.892 60.1559C605.542 60.1559 600.222 60.1559 594.656 60.1559C594.656 63.4993 594.656 66.2309 594.656 69.4882Z" fill="black"/>
<path d="M938.865 347.658C938.865 268.397 938.865 190.309 938.865 111.695C957.657 104.379 976.341 97.1067 996.382 89.2996C996.382 105.793 996.382 120.614 996.382 135.987C1014.47 143.277 1032.16 150.412 1051.36 158.159C1032.26 166.862 1014.89 174.781 997.129 182.873C997.129 229.371 997.129 275.834 997.129 323.219C1013.7 330.225 1030.72 337.429 1048.69 345.029C1046.62 346.46 1045.36 347.666 1043.81 348.356C1028.87 354.905 1013.93 361.454 998.85 367.753C996.471 368.744 992.891 369.467 990.718 368.623C973.391 361.893 956.261 354.758 938.865 347.658Z" fill="black"/>
<path d="M907.786 176.013C907.786 191.059 907.786 205.691 907.786 220.831C905.396 222.011 902.948 223.364 900.352 224.467C888.561 229.474 876.888 234.739 864.852 239.246C857.909 241.839 855.136 245.174 855.353 252.111C855.972 272.783 855.579 293.473 855.579 314.154C855.579 348.916 855.579 383.677 855.579 418.43C855.579 421.523 855.579 424.625 855.579 428.538C852.491 427.624 850.327 427.202 848.39 426.375C835.429 420.851 822.596 415.095 809.537 409.744C804.866 407.831 802.595 405.608 802.614 400.722C802.811 342.117 802.791 283.512 802.664 224.915C802.654 219.478 804.837 215.247 809.813 212.472C816.421 208.784 823.108 205.001 830.296 202.356C855.058 193.265 880.045 184.639 904.954 175.876C905.475 175.695 906.183 175.927 907.786 176.013Z" fill="black"/>
<path d="M510.913 537.578C510.913 533.7 510.913 530.564 510.913 527.427C510.913 486.694 510.775 445.961 511.06 405.228C511.099 399.265 509.231 396.007 502.78 393.491C487.567 387.571 472.777 380.833 456.896 374.034C459.384 372.466 461.006 371.19 462.875 370.311C476.416 363.935 490.104 357.782 503.527 351.224C508.021 349.027 511.63 348.88 516.213 351.086C529.685 357.567 543.324 363.805 557.092 369.794C561.861 371.871 563.533 374.508 563.523 379.161C563.356 437.102 563.415 495.044 563.375 552.985C563.375 554.881 562.913 556.777 562.53 559.689C544.976 552.175 528.338 545.049 510.913 537.578Z" fill="black"/>
<path d="M254.901 603.715C273.427 611.358 290.577 618.441 308.661 625.904C306.754 627.308 305.593 628.549 304.099 629.213C289.496 635.71 274.765 641.992 260.24 648.61C256.032 650.531 252.501 650.437 248.283 648.713C233.453 642.638 218.545 636.684 203.51 631.014C198.888 629.273 197.236 626.903 197.246 622.543C197.393 579.75 197.354 536.949 197.285 494.157C197.275 490.443 197.964 487.711 202.408 485.902C218.742 479.258 234.899 472.269 251.154 465.453C251.97 465.109 252.993 465.143 254.901 464.859C254.901 511.193 254.901 557.243 254.901 603.715Z" fill="black"/>
<path d="M312.603 486.332C293.928 478.835 276.129 471.7 257.898 464.384C258.734 463.402 259.078 462.583 259.727 462.29C275.116 455.293 290.477 448.244 306.014 441.514C308.335 440.506 312.003 440.11 314.225 440.997C331.169 447.736 347.906 454.862 364.79 461.902C364.79 508.831 364.79 555.243 364.79 602.301C348.014 610.125 331.08 618.018 312.603 626.636C312.603 578.88 312.603 532.614 312.603 486.332Z" fill="black"/>
<path d="M453.099 561.8C435.281 554.148 418.622 546.996 401.571 539.68C401.571 477.62 401.571 415.663 401.571 353.042C403.734 353.603 405.878 353.896 407.746 354.688C421.012 360.315 434.16 366.158 447.475 371.69C451.782 373.482 453.857 375.654 453.847 380.135C453.67 439.3 453.719 498.465 453.689 557.63C453.68 558.474 453.453 559.327 453.099 561.8Z" fill="black"/>
<path d="M530.371 139.226C524.313 139.304 518.256 139.39 511.451 139.476C511.451 184.509 511.451 228.319 511.451 272.645C501.007 277.281 490.947 281.745 479.953 286.622C479.953 238.564 479.953 191.911 479.953 144.629C489.787 142.906 499.306 141.243 510.015 139.373C507.389 130.592 505.078 122.027 502.089 113.651C501.509 112.022 498.46 110.463 496.238 109.989C481.576 106.835 473.453 98.502 470.021 85.9468C467.445 76.5111 464.436 67.1615 461.309 56.7435C482.894 51.6508 503.839 46.7045 525.68 41.5515C529.456 54.3307 533.547 66.093 536.291 78.0967C538.434 87.4376 534.294 95.779 526.418 102.173C522.651 105.232 522.081 108.084 523.408 112.031C525.631 118.623 527.706 125.267 529.545 131.954C530.203 134.349 529.977 136.934 530.135 139.45L530.371 139.226ZM518.098 53.0812C503.298 56.5453 489.266 59.8284 475.046 63.1546C475.233 64.9642 475.164 66.093 475.479 67.1443C477.357 73.5124 479.108 79.9149 481.32 86.1881C485.254 97.3386 496.267 103.164 508.412 100.811C520.232 98.5192 527.548 88.6957 525.139 77.166C523.497 69.3589 520.675 61.75 518.098 53.0812Z" fill="black"/>
<path d="M130.307 782.407C136.414 779.563 142.648 776.659 150.358 773.066C142.688 769.645 136.433 766.862 130.159 764.061C130.159 760.296 130.159 756.9 130.159 753.005C136.551 750.257 142.894 747.534 150.122 744.423C150.564 748.481 150.899 751.506 151.322 755.392C157.3 757.84 163.673 760.442 170.95 763.415C170.95 759.218 170.95 756.151 170.95 752.73C165.01 750.024 159.061 747.318 151.341 743.802C158.431 740.674 163.791 738.115 169.366 735.978C170.9 735.392 173.261 735.668 174.913 736.254C180.636 738.296 186.202 740.657 192.013 742.958C192.013 746.965 192.013 750.619 192.013 754.643C185.946 757.504 179.938 760.33 172.484 763.846C179.436 766.939 185.356 769.585 191.817 772.454C191.817 787.724 191.817 803.131 191.817 819.202C185.799 821.753 179.515 824.424 171.5 827.819C171.5 821.675 171.5 817.186 171.5 812.696C171.5 804.079 171.304 795.462 171.579 786.853C171.707 782.821 170.124 780.434 165.807 778.995C161.283 777.478 156.946 775.513 151.538 773.35C151.538 789.232 151.538 804.208 151.538 819.564C157.143 822.132 162.876 824.76 168.747 827.457C155.471 838.16 149.846 838.22 130.307 827.923C130.307 813.067 130.307 797.935 130.307 782.407Z" fill="black"/>
<path d="M655.827 141.338C657.381 141.01 658.974 140.269 660.469 140.416C674.138 141.743 687.541 144.112 700.256 148.912C706.549 151.29 710.198 154.823 709.549 161.424C708.959 167.396 709.342 173.445 709.45 179.46C709.5 182.269 708.742 184.354 705.635 185.776C690.275 192.765 674.993 199.882 659.662 206.905C659.19 207.121 658.443 206.862 656.83 206.759C656.83 204.079 656.83 201.33 656.83 198.573C656.83 182.252 656.87 165.922 656.801 149.602C656.791 146.766 656.358 143.94 656.093 141.122C656.063 141.14 655.827 141.338 655.827 141.338Z" fill="black"/>
<path d="M468.871 148.593C468.871 196.117 468.871 243.545 468.871 291.353C465.174 292.999 461.466 294.645 456.727 296.756C456.372 293.731 455.91 291.629 455.9 289.526C455.851 246.82 455.832 204.122 455.851 161.416C455.861 151.902 457.031 150.782 468.871 148.593Z" fill="black"/>
<path d="M88.2359 847.346C88.2359 816.936 88.2261 787.673 88.2556 758.418C88.2556 757.332 88.5801 756.237 88.9145 754.118C94.7065 756.453 99.9184 758.659 105.238 760.649C108.69 761.942 108.788 764.432 108.788 767.061C108.798 774.807 108.808 782.554 108.808 790.301C108.808 808.38 108.808 826.45 108.818 844.528C108.818 847.605 108.818 850.672 108.818 855.214C101.039 852.241 94.8835 849.888 88.2359 847.346Z" fill="black"/>
<path d="M223.307 776.16C216.453 773.307 209.993 770.61 203.276 767.81C203.276 746.732 203.276 725.965 203.276 704.009C210.347 706.723 216.758 709.179 223.711 711.85C223.711 727.499 223.711 742.906 223.711 758.417C229.975 761.252 235.717 763.854 242.867 767.094C235.59 770.464 229.444 773.307 223.307 776.16Z" fill="black"/>
<path d="M295.67 678.993C300.036 677.227 304.598 675.744 308.709 673.599C312.79 671.479 316.487 670.893 320.49 673.366C321.021 673.694 321.65 673.9 322.23 674.159C335.594 680.096 333.323 677.477 333.421 690.195C333.559 708.55 333.46 726.913 333.46 745.267C333.46 756.754 333.047 757.245 318.464 762.458C318.287 759.503 318.002 756.771 317.992 754.031C317.953 734.522 317.776 715.013 318.1 695.512C318.189 690.17 316.458 687.059 310.518 685.249C305.336 683.672 300.557 681.104 295.591 678.976L295.67 678.993Z" fill="black"/>
<path d="M295.602 678.985C295.995 683.225 296.644 687.464 296.723 691.713C296.89 701.467 296.988 711.23 296.683 720.976C296.556 725.285 297.991 727.991 302.78 729.507C306.655 730.731 310.293 732.54 315.741 734.798C308.828 737.978 303.488 740.572 297.972 742.855C296.733 743.364 294.825 743.071 293.379 742.683C277.104 738.331 275.944 736.901 275.944 721.752C275.944 712.575 276.082 703.389 275.885 694.212C275.806 690.584 277.281 688.455 281.018 686.792C286.102 684.526 290.822 681.639 295.69 679.011C295.67 678.994 295.602 678.985 295.602 678.985Z" fill="black"/>
<path d="M246.13 733.626C247.34 733.833 248.667 733.85 249.769 734.29C254.804 736.263 259.77 738.357 265.375 740.658C265.375 755.031 265.512 769.267 265.208 783.493C265.168 785.286 263.29 787.707 261.461 788.698C256.819 791.206 251.716 793.058 246.73 795.195C244.281 788.603 243.918 742.416 246.13 733.626Z" fill="black"/>
<path d="M314.719 764.432C307.403 767.698 302.358 770.136 297.107 772.187C295.553 772.791 293.213 772.782 291.63 772.213C286.3 770.309 281.157 768.034 274.637 765.363C280.96 762.398 285.926 759.753 291.217 757.745C293.262 756.97 296.261 757.073 298.405 757.771C303.214 759.348 307.757 761.537 314.719 764.432Z" fill="black"/>
</svg>
