<svg width="1950" height="2452" viewBox="0 0 1950 2452" fill="none" xmlns="http://www.w3.org/2000/svg">
<path fill-rule="evenodd" clip-rule="evenodd" d="M1301.8 30.4741C1309.9 34.1171 1315.29 42.1574 1315.46 51.0198L1317.22 145.481C1328.17 149.835 1338.96 154.678 1349.57 160.008C1358.76 164.627 1364.77 174.025 1364.97 184.293L1367.79 335.015L1491.73 275.089C1499.23 271.46 1507.37 270.028 1515.31 270.651V283.904V465.649L815.654 781.55L815.653 630.763C815.653 613.152 825.709 597.111 841.549 589.452L964.394 530.056L958.03 189.83C957.841 179.7 963.274 170.324 972.144 165.469C982.665 159.711 993.396 154.461 1004.3 149.718L1002.53 55.2541C1002.37 46.5111 1007.26 38.4792 1015.09 34.6246C1104.6 -9.42597 1210.51 -10.5967 1301.8 30.4741ZM665.175 849.493L658.84 510.801C658.736 505.275 655.502 500.218 650.555 497.733C647.387 496.141 644.188 494.63 640.962 493.2L639.71 426.26C639.613 421.052 636.444 416.328 631.685 414.187C578.037 390.051 515.798 390.739 463.2 416.626C458.597 418.891 455.724 423.611 455.82 428.749L457.073 495.722C453.834 497.286 450.627 498.935 447.456 500.671C442.683 503.283 439.759 508.329 439.861 513.78L447.936 945.48C447.949 946.17 447.979 946.856 448.027 947.537L665.175 849.493ZM306.397 1011.48L301.268 737.253C301.161 731.528 297.769 726.304 292.61 723.797C289.561 722.316 286.486 720.907 283.386 719.571L282.164 654.227C282.067 649.019 278.898 644.294 274.139 642.153C220.491 618.018 158.252 618.706 105.654 644.592C101.051 646.857 98.1779 651.577 98.274 656.715L99.4969 722.096C96.3799 723.562 93.2911 725.106 90.2335 726.726C85.2522 729.365 82.1836 734.58 82.2892 740.227L89.1971 1109.55L306.397 1011.48ZM3.84618 1214.99C1.61501 1219.79 0.397224 1225.1 0.397219 1230.59L0.39624 2414.45C0.396218 2440.94 27.4089 2458.85 51.8031 2448.53L1515.32 1829.85V1817.54L1515.31 532.555L3.84618 1214.99ZM1578.65 1843.12L1886.58 2138.36C1910.11 2160.91 1949.19 2144.24 1949.19 2111.65V937.388L1947.66 938.638L1925.77 916.149L1578.65 559.594L1578.65 1821.53L1578.65 1843.12ZM1919.7 825.388L1919.7 680.494C1919.7 668.32 1914.87 656.63 1906.27 647.987L1578.65 318.541V475.072L1919.7 825.388Z" fill="white"/>
</svg>
